<!-- KDE Breeze network-wired icon, recoloured to #22C55E.
     Source: https://raw.githubusercontent.com/KDE/breeze-icons/master/icons/status/22/network-wired.svg
     Licence: LGPL-2.1-or-later
     viewBox keeps original 22-unit path data; width/height scale to 25px. -->
<svg xmlns="http://www.w3.org/2000/svg" width="25" height="25" viewBox="0 0 22 22">
  <path fill="#22C55E"
    d="m 3,3 0,6 2,0 0,8 1,0 0,-8 2,0 0,-6 z
       m 6,0 0,1 9,0 0,10 -11,0 0,1 0,1 1,0 1,0 0,1 0,1 -2,0 0,1 2,0 1,0 2,0 3,0 0,-1 -1,0 -1,0 0,-2 1,0 4,0 1,0 0,-13 -1,0 z
       m -5,1 3,0 0,4 -3,0 z
       m 1,1 0,2 1,0 0,-2 z
       m -2,5 0,6 1,0 0,-6 z"/>
</svg>
